<?xml version="1.0" encoding="utf-8"?>
<!-- Generator: Adobe Illustrator 27.5.0, SVG Export Plug-In . SVG Version: 6.00 Build 0)  -->
<svg version="1.1" id="katman_1" xmlns="http://www.w3.org/2000/svg" xmlns:xlink="http://www.w3.org/1999/xlink" x="0px" y="0px"
	 viewBox="0 0 5000 5000" style="enable-background:new 0 0 5000 5000;" xml:space="preserve">
<g>
	<g>
		<defs>
			<rect id="SVGID_1_" x="798" y="534" width="3404" height="3933"/>
		</defs>
		<clipPath id="SVGID_00000078025892527453110610000013242257249971976363_">
			<use xlink:href="#SVGID_1_"  style="overflow:visible;"/>
		</clipPath>
		<path style="clip-path:url(#SVGID_00000078025892527453110610000013242257249971976363_);fill:#00181B;" d="M1876.508,3677.469
			l465.015,0.074l0.157,497.508c-0.012,33.621,4.523,76.247-4.289,108.547l-1.871,6.665
			c-12.383,43.457-29.512,72.902-59.332,106.737c-136.688,120.922-345.297,75.563-391.481-104.199
			c-10.281-40.015-8.16-78.004-8.191-119.02L1876.508,3677.469z M1876.508,3677.469"/>
		<path style="clip-path:url(#SVGID_00000078025892527453110610000013242257249971976363_);fill:#00181B;" d="M2657.547,3678.688
			l467.625-0.61l-0.121,506.836c-0.223,86.719-6.957,145.727-68.824,213.527l-38.356,30.711
			c-130.687,84.328-304.148,19.141-349.656-130.492c-10.598-34.887-10.473-73.46-10.524-109.426L2657.547,3678.688z
			 M2657.547,3678.688"/>
		<path style="clip-path:url(#SVGID_00000078025892527453110610000013242257249971976363_);fill:#00181B;" d="M982.375,1610.508
			c102.992-8.445,201.199,75.551,209.77,178.531c3.843,46.207,0.824,94.914,0.843,141.328l-0.129,942.656
			c-0.25,8.305-1.296,17.434-4.129,25.293l-4.386,11.942c-19.598,51.242-61.805,101.609-112.727,124.316l-3.215,1.414
			c-19.132,8.692-38.515,11.598-59.269,13.649c-102.449,5.222-196.559-78.539-207.258-179.981
			c-6.035-57.226-2.082-118.359-2.113-176l0.074-838.801C799.965,1725.629,840.367,1639.457,982.375,1610.508L982.375,1610.508z
			 M982.375,1610.508"/>
		<path style="clip-path:url(#SVGID_00000078025892527453110610000013242257249971976363_);fill:#00181B;" d="M3984.645,1609.941
			c110.449-3.871,202.832,67.539,213.257,183.067c6.739,74.769,2.417,152.851,2.417,227.992l-0.124,798.508
			c-1.001,116.703-53.125,209.402-179.394,229.129c-26.953,1.902-52.879,1.586-78.758-7.227l-2.613-0.93
			c-121.754-40.062-133.91-151.218-134.133-257.324l-0.121-941.625c0.027-21.179-1.024-43.617,3.394-64.383l0.879-3.976
			C3827.59,1683.586,3897.656,1628.543,3984.645,1609.941L3984.645,1609.941z M3984.645,1609.941"/>
		<path style="clip-path:url(#SVGID_00000078025892527453110610000013242257249971976363_);fill:#00181B;" d="M1736.68,538.168
			c54.422-6.801,79.508,43.551,106.652,79.767l141.504,191.765c26.922-8.695,51.926-22.886,78.074-33.664
			c269.012-110.832,533.551-121.027,813.09-27.246c44.996,15.098,97.242,31.606,137.43,56.742
			c4.418,2.782,25.293-28.328,29.343-33.75l109.012-144.148c34.863-46.508,90.793-129.359,163.863-74.875
			c28.762,21.449,41.016,63.359,32.227,97.809l-1.172,4.441c-9.273,37.375-48.558,76.742-71.801,107.277l-101.855,131.309
			c150.148,116.047,247.535,240.211,335.132,404.418l37.011,80.371l-2085.339-0.262c35.562-159.488,245.183-384.293,364.914-484.433
			c-38.18-59.77-84.446-114.223-125.633-171.997c-37.024-51.934-84.774-132.07,2.765-173.125l10.106-4.606
			C1719.863,540.685,1728.32,539.492,1736.68,538.168L1736.68,538.168z M2051.652,973.332c-39.754,1.07-70.785,26.031-91.839,57.652
			l-2.071,3.016c-53.75,81.461,21.867,184.441,118.129,180.094c103.328-26.114,148.969-162.594,47.414-225.25l-3.605-2.313
			C2098.844,974.375,2075.32,971.23,2051.652,973.332L2051.652,973.332z M2931.473,973.492
			c-153.325,8.512-144.508,242.664,16.379,239.059c129.957-22.774,151.464-185.176,41.871-228.192l-18.578-7.039
			C2961.816,973.789,2941.188,971.461,2931.473,973.492L2931.473,973.492z M2931.473,973.492"/>
	</g>
	<path style="fill:#00181B;" d="M1405.852,1507.891l2185.359,2.785l1.418,1632.222c-1.856,107.79-53.637,210.985-129.957,286.036
		c-126,118.847-247.805,121.605-405.004,121.703l-1231.293-0.098c-240.082-0.609-420.504-210.254-421.238-443.773L1405.852,1507.891
		z M1405.852,1507.891"/>
</g>
</svg>
